<?xml version="1.0" encoding="utf-8"?><svg xmlns="http://www.w3.org/2000/svg" xmlns:xlink="http://www.w3.org/1999/xlink" viewBox="0 0 212.37 235.55"><defs><style>.cls-1{fill:#fff;stroke:#0ab159;stroke-linecap:round;stroke-linejoin:round;stroke-width:7.23px;}.cls-2{fill:url(#linear-gradient);}.cls-3{fill:url(#linear-gradient-2);}.cls-4{fill:url(#linear-gradient-3);}.cls-5{fill:url(#linear-gradient-4);}.cls-6{fill:url(#linear-gradient-5);}.cls-7{fill:url(#New_Gradient_Swatch_2);}.cls-8{fill:url(#linear-gradient-6);}.cls-9{fill:url(#linear-gradient-7);}.cls-10{fill:url(#New_Gradient_Swatch_2-2);}.cls-11{fill:url(#linear-gradient-8);}.cls-12{fill:url(#linear-gradient-9);}.cls-13{fill:url(#New_Gradient_Swatch_2-3);}</style><linearGradient id="linear-gradient" x1="25.15" y1="70.99" x2="187.22" y2="70.99" gradientUnits="userSpaceOnUse"><stop offset="0.04" stop-color="#0ab159" stop-opacity="0"/><stop offset="1" stop-color="#0ab159" stop-opacity="0.3"/></linearGradient><linearGradient id="linear-gradient-2" x1="180.48" y1="69.17" x2="112.46" y2="214.14" xlink:href="#linear-gradient"/><linearGradient id="linear-gradient-3" x1="103.46" y1="210.84" x2="27.04" y2="69.96" xlink:href="#linear-gradient"/><linearGradient id="linear-gradient-4" x1="25.15" y1="95.15" x2="187.22" y2="95.15" xlink:href="#linear-gradient"/><linearGradient id="linear-gradient-5" x1="25.15" y1="93.64" x2="187.22" y2="93.64" xlink:href="#linear-gradient"/><linearGradient id="New_Gradient_Swatch_2" x1="-351.89" y1="93.64" x2="257.27" y2="93.64" gradientUnits="userSpaceOnUse"><stop offset="0" stop-color="#0ab159"/><stop offset="1" stop-color="#0ab159" stop-opacity="0.3"/></linearGradient><linearGradient id="linear-gradient-6" x1="146.36" y1="53.16" x2="78.34" y2="198.13" xlink:href="#linear-gradient"/><linearGradient id="linear-gradient-7" x1="174.78" y1="66.49" x2="106.76" y2="211.46" xlink:href="#linear-gradient"/><linearGradient id="New_Gradient_Swatch_2-2" x1="314.35" y1="-246.82" x2="-8.99" y2="443.44" xlink:href="#New_Gradient_Swatch_2"/><linearGradient id="linear-gradient-8" x1="108.6" y1="208.05" x2="32.18" y2="67.17" xlink:href="#linear-gradient"/><linearGradient id="linear-gradient-9" x1="123.53" y1="199.95" x2="47.11" y2="59.08" xlink:href="#linear-gradient"/><linearGradient id="New_Gradient_Swatch_2-3" x1="94.55" y1="165.61" x2="15.13" y2="19.33" xlink:href="#New_Gradient_Swatch_2"/></defs><title>objectStorage</title><g id="Layer_2" data-name="Layer 2"><g id="Layer_1-2" data-name="Layer 1"><path class="cls-1" d="M3.62,74.53V161a27.67,27.67,0,0,0,13.83,24l74.9,43.24a27.68,27.68,0,0,0,27.67,0L194.92,185a27.67,27.67,0,0,0,13.83-24V74.53a27.65,27.65,0,0,0-13.83-24L120,7.32a27.68,27.68,0,0,0-27.67,0L17.45,50.57A27.65,27.65,0,0,0,3.62,74.53Z"/><polygon class="cls-2" points="187.22 70.99 106.19 24.2 25.15 70.99 25.15 70.99 106.19 117.77 106.19 117.77 187.22 70.99"/><polygon class="cls-3" points="187.22 70.99 106.19 117.77 106.19 211.34 187.22 164.56 187.22 70.99"/><polygon class="cls-4" points="25.15 70.99 25.15 164.56 106.19 211.34 106.19 117.77 25.15 70.99"/><path class="cls-5" d="M129.57,83.84a11.57,11.57,0,0,1-1.46.38l-2.34,22.25L145.62,95A31,31,0,0,0,129.57,83.84Z"/><path class="cls-6" d="M118.43,110.7l3.4-31.23h4a5,5,0,0,0,0-10H53.48a5,5,0,1,0,0,10h4.05l1.18,10.89,47.47,27.41Z"/><path class="cls-7" d="M145.62,95l-19.85,11.47,2.34-22.25a11.57,11.57,0,0,0,1.46-.38A31,31,0,0,1,145.62,95Zm-27.19,15.7,3.4-31.23h4a5,5,0,0,0,0-10H53.48a5,5,0,1,0,0,10h4.05l1.18,10.89,47.47,27.41Z"/><path class="cls-8" d="M115.25,139.85l3.18-29.15-12.25,7.07v11a5,5,0,0,1,0,9.34v5.76h4.75A4.33,4.33,0,0,0,115.25,139.85Z"/><path class="cls-9" d="M122.18,140.53a11.31,11.31,0,0,1-11.25,10.25h-4.75v8.51h45v0a19.13,19.13,0,0,0-.23-38.1A31.06,31.06,0,0,0,145.62,95l-19.85,11.47Z"/><path class="cls-10" d="M110.93,143.82h-4.75v-5.76a5,5,0,0,0,0-9.34v-11l12.25-7.07-3.18,29.15A4.33,4.33,0,0,1,110.93,143.82Zm11.25-3.29a11.31,11.31,0,0,1-11.25,10.25h-4.75v8.51h45v0a19.13,19.13,0,0,0-.23-38.1A31.06,31.06,0,0,0,145.62,95l-19.85,11.47Z"/><path class="cls-11" d="M68.43,150.78a11.29,11.29,0,0,1-11.25-10.25L54.57,115.8a23.73,23.73,0,0,0,11.84,43.49h39.77v-8.51Z"/><path class="cls-12" d="M104.43,138.39a5,5,0,0,1,0-10,4.82,4.82,0,0,1,1.75.33v-11L58.71,90.36l5.39,49.49a4.35,4.35,0,0,0,4.33,4h37.75v-5.76A4.82,4.82,0,0,1,104.43,138.39Z"/><path class="cls-13" d="M106.18,150.78v8.51H66.41A23.73,23.73,0,0,1,54.57,115.8l2.61,24.73a11.29,11.29,0,0,0,11.25,10.25Zm-1.75-12.39a5,5,0,0,1,0-10,4.82,4.82,0,0,1,1.75.33v-11L58.71,90.36l5.39,49.49a4.35,4.35,0,0,0,4.33,4h37.75v-5.76A4.82,4.82,0,0,1,104.43,138.39Z"/></g></g></svg>